<svg width="18" height="18" viewBox="0 0 23 23" fill="none" xmlns="http://www.w3.org/2000/svg">
<path d="M4.20825 14.625H3.16659C2.61405 14.625 2.08415 14.4055 1.69345 14.0148C1.30275 13.6241 1.08325 13.0942 1.08325 12.5416V3.16665C1.08325 2.61411 1.30275 2.08421 1.69345 1.69351C2.08415 1.30281 2.61405 1.08331 3.16659 1.08331H12.5416C13.0941 1.08331 13.624 1.30281 14.0147 1.69351C14.4054 2.08421 14.6249 2.61411 14.6249 3.16665V4.20831M10.4583 8.37498H19.8333C20.9838 8.37498 21.9166 9.30772 21.9166 10.4583V19.8333C21.9166 20.9839 20.9838 21.9166 19.8333 21.9166H10.4583C9.30766 21.9166 8.37492 20.9839 8.37492 19.8333V10.4583C8.37492 9.30772 9.30766 8.37498 10.4583 8.37498Z" stroke="#fff" stroke-width="1" stroke-linecap="round" stroke-linejoin="round"/>
</svg>
